<svg xmlns="http://www.w3.org/2000/svg" xmlns:xlink="http://www.w3.org/1999/xlink" contentStyleType="text/css" data-diagram-type="STATE" height="608px" preserveAspectRatio="none" style="width:1279px;height:608px;background:#FFFFFF;" version="1.1" viewBox="0 0 1279 608" width="1279px" zoomAndPan="magnify"><title>Log handle - FMS</title><defs/><g><g class="title" data-source-line="1"><text fill="#000000" font-family="sans-serif" font-size="14" font-weight="bold" lengthAdjust="spacing" textLength="136.2676" x="564.8333" y="22.9951">Log handle - FMS</text></g><ellipse cx="310.97" cy="69.2969" fill="#222222" rx="10" ry="10" style="stroke:#222222;stroke-width:1;"/><g id="UNKNOWN"><rect fill="#F1F1F1" height="50" rx="12.5" ry="12.5" style="stroke:#181818;stroke-width:0.5;" width="95.708" x="388.12" y="44.2969"/><line style="stroke:#181818;stroke-width:0.5;" x1="388.12" x2="483.828" y1="70.5938" y2="70.5938"/><text fill="#000000" font-family="sans-serif" font-size="14" lengthAdjust="spacing" textLength="75.708" x="398.12" y="62.292">UNKNOWN</text></g><g id="STATE_PRESET"><rect fill="#F1F1F1" height="50" rx="12.5" ry="12.5" style="stroke:#181818;stroke-width:0.5;" width="124.7129" x="151.62" y="171.2969"/><line style="stroke:#181818;stroke-width:0.5;" x1="151.62" x2="276.3329" y1="197.5938" y2="197.5938"/><text fill="#000000" font-family="sans-serif" font-size="14" lengthAdjust="spacing" textLength="104.7129" x="161.62" y="189.292">STATE_PRESET</text></g><g id="STATE_RESET"><rect fill="#F1F1F1" height="50" rx="12.5" ry="12.5" style="stroke:#181818;stroke-width:0.5;" width="116.2705" x="353.84" y="298.2969"/><line style="stroke:#181818;stroke-width:0.5;" x1="353.84" x2="470.1105" y1="324.5938" y2="324.5938"/><text fill="#000000" font-family="sans-serif" font-size="14" lengthAdjust="spacing" textLength="96.2705" x="363.84" y="316.292">STATE_RESET</text></g><g id="STATE_RUN"><rect fill="#F1F1F1" height="50" rx="12.5" ry="12.5" style="stroke:#181818;stroke-width:0.5;" width="101.8604" x="692.04" y="425.2969"/><line style="stroke:#181818;stroke-width:0.5;" x1="692.04" x2="793.9004" y1="451.5938" y2="451.5938"/><text fill="#000000" font-family="sans-serif" font-size="14" lengthAdjust="spacing" textLength="81.8604" x="702.04" y="443.292">STATE_RUN</text></g><g id="STATE_STOP"><rect fill="#F1F1F1" height="50" rx="12.5" ry="12.5" style="stroke:#181818;stroke-width:0.5;" width="108.3135" x="130.82" y="552.2969"/><line style="stroke:#181818;stroke-width:0.5;" x1="130.82" x2="239.1335" y1="578.5938" y2="578.5938"/><text fill="#000000" font-family="sans-serif" font-size="14" lengthAdjust="spacing" textLength="88.3135" x="140.82" y="570.292">STATE_STOP</text></g><!--link *start* to UNKNOWN--><g class="link" data-entity-1="*start*" data-entity-2="UNKNOWN" data-source-line="3" data-uid="lnk4" id="link_*start*_UNKNOWN"><path d="M321.2,69.2969 C335.72,69.2969 357.26,69.2969 381.73,69.2969" fill="none" id="*start*-to-UNKNOWN" style="stroke:#181818;stroke-width:1;"/><polygon fill="#181818" points="387.73,69.2969,378.73,65.2969,382.73,69.2969,378.73,73.2969,387.73,69.2969" style="stroke:#181818;stroke-width:1;"/><text fill="#000000" font-family="sans-serif" font-size="13" lengthAdjust="spacing" textLength="31.7573" x="339.05" y="62.3638">Start</text></g><!--link UNKNOWN to STATE_PRESET--><g class="link" data-entity-1="UNKNOWN" data-entity-2="STATE_PRESET" data-source-line="5" data-uid="lnk6" id="link_UNKNOWN_STATE_PRESET"><path d="M387.65,82.7369 C337.71,95.9069 265.59,115.9169 254.97,124.2969 C239.78,136.2969 231.5244,150.0724 224.9044,165.5124" fill="none" id="UNKNOWN-to-STATE_PRESET" style="stroke:#181818;stroke-width:1;"/><polygon fill="#181818" points="222.54,171.0269,229.7629,164.3314,224.5103,166.4315,222.4102,161.1789,222.54,171.0269" style="stroke:#181818;stroke-width:1;"/><text fill="#000000" font-family="sans-serif" font-size="13" lengthAdjust="spacing" textLength="98.979" x="255.97" y="137.3638">EVENT_PRESET</text></g><!--link STATE_PRESET to UNKNOWN--><g class="link" data-entity-1="STATE_PRESET" data-entity-2="UNKNOWN" data-source-line="11" data-uid="lnk12" id="link_STATE_PRESET_UNKNOWN"><path d="M276.74,177.8469 C303.21,169.0169 333.68,156.8269 358.97,141.2969 C379.74,128.5469 395.7044,114.0148 410.1744,98.9448" fill="none" id="STATE_PRESET-to-UNKNOWN" style="stroke:#181818;stroke-width:1;"/><polygon fill="#181818" points="414.33,94.6169,405.2113,98.3384,410.867,98.2235,410.9819,103.8792,414.33,94.6169" style="stroke:#181818;stroke-width:1;"/><text fill="#000000" font-family="sans-serif" font-size="13" lengthAdjust="spacing" textLength="36.9116" x="382.97" y="137.3638">Other</text></g><!--link UNKNOWN to STATE_RESET--><g class="link" data-entity-1="UNKNOWN" data-entity-2="STATE_RESET" data-source-line="6" data-uid="lnk8" id="link_UNKNOWN_STATE_RESET"><path d="M441.91,94.6269 C450.1,132.5469 462.03,207.6769 444.97,268.2969 C442.06,278.6569 439.7967,283.9676 434.0967,292.7876" fill="none" id="UNKNOWN-to-STATE_RESET" style="stroke:#181818;stroke-width:1;"/><polygon fill="#181818" points="430.84,297.8269,439.0845,292.4391,433.5539,293.6275,432.3655,288.0969,430.84,297.8269" style="stroke:#181818;stroke-width:1;"/><text fill="#000000" font-family="sans-serif" font-size="13" lengthAdjust="spacing" textLength="218.5117" x="453.97" y="200.8638">EVENT_RESET | EVENT_INCREASE</text></g><!--link STATE_RESET to UNKNOWN--><g class="link" data-entity-1="STATE_RESET" data-entity-2="UNKNOWN" data-source-line="16" data-uid="lnk17" id="link_STATE_RESET_UNKNOWN"><path d="M470.57,318.8969 C534.41,311.6969 633.75,289.4669 680.97,221.2969 C735.67,142.3369 575.9155,98.0226 490.0355,80.2526" fill="none" id="STATE_RESET-to-UNKNOWN" style="stroke:#181818;stroke-width:1;"/><polygon fill="#181818" points="484.16,79.0369,492.1628,84.7775,489.0563,80.05,493.7838,76.9435,484.16,79.0369" style="stroke:#181818;stroke-width:1;"/><text fill="#000000" font-family="sans-serif" font-size="13" lengthAdjust="spacing" textLength="36.9116" x="691.97" y="200.8638">Other</text></g><!--link UNKNOWN to UNKNOWN--><g class="link" data-entity-1="UNKNOWN" data-entity-2="UNKNOWN" data-source-line="7" data-uid="lnk9" id="link_UNKNOWN_UNKNOWN"><path d="M484.07,57.4469 C503.01,56.8569 518.83,60.7969 518.83,69.2969 C518.83,77.7969 509.0071,81.9237 490.0671,81.3337" fill="none" id="UNKNOWN-to-UNKNOWN" style="stroke:#181818;stroke-width:1;"/><polygon fill="#181818" points="484.07,81.1469,492.9411,85.4252,489.0676,81.3026,493.1902,77.429,484.07,81.1469" style="stroke:#181818;stroke-width:1;"/><text fill="#000000" font-family="sans-serif" font-size="13" lengthAdjust="spacing" textLength="36.9116" x="524.83" y="73.8638">Other</text></g><!--link STATE_PRESET to STATE_PRESET--><g class="link" data-entity-1="STATE_PRESET" data-entity-2="STATE_PRESET" data-source-line="9" data-uid="lnk10" id="link_STATE_PRESET_STATE_PRESET"><path d="M276.71,184.4069 C296.1,184.6469 311.33,188.6069 311.33,196.2969 C311.33,203.9869 302.0995,207.8726 282.7095,208.1126" fill="none" id="STATE_PRESET-to-STATE_PRESET" style="stroke:#181818;stroke-width:1;"/><polygon fill="#181818" points="276.71,208.1869,285.7588,212.0752,281.7096,208.125,285.6598,204.0758,276.71,208.1869" style="stroke:#181818;stroke-width:1;"/><text fill="#000000" font-family="sans-serif" font-size="13" lengthAdjust="spacing" textLength="98.979" x="317.33" y="200.8638">EVENT_PRESET</text></g><!--link STATE_PRESET to STATE_RESET--><g class="link" data-entity-1="STATE_PRESET" data-entity-2="STATE_RESET" data-source-line="10" data-uid="lnk11" id="link_STATE_PRESET_STATE_RESET"><path d="M151.49,209.7469 C108.9,221.0369 64.2,240.2269 87.97,268.2969 C121.33,307.6769 263.4935,318.1611 347.4335,321.0411" fill="none" id="STATE_PRESET-to-STATE_RESET" style="stroke:#181818;stroke-width:1;"/><polygon fill="#181818" points="353.43,321.2469,344.5725,316.9406,348.4329,321.0754,344.2981,324.9359,353.43,321.2469" style="stroke:#181818;stroke-width:1;"/><text fill="#000000" font-family="sans-serif" font-size="13" lengthAdjust="spacing" textLength="218.5117" x="88.97" y="264.3638">EVENT_RESET | EVENT_INCREASE</text></g><!--link STATE_RESET to STATE_PRESET--><g class="link" data-entity-1="STATE_RESET" data-entity-2="STATE_PRESET" data-source-line="14" data-uid="lnk14" id="link_STATE_RESET_STATE_PRESET"><path d="M379.74,297.9969 C360.45,283.8169 335.24,265.8969 311.97,251.2969 C295.69,241.0769 282.612,233.5414 266.232,224.6414" fill="none" id="STATE_RESET-to-STATE_PRESET" style="stroke:#181818;stroke-width:1;"/><polygon fill="#181818" points="260.96,221.7769,266.9584,229.5884,265.3534,224.164,270.7778,222.559,260.96,221.7769" style="stroke:#181818;stroke-width:1;"/><text fill="#000000" font-family="sans-serif" font-size="13" lengthAdjust="spacing" textLength="98.979" x="337.97" y="264.3638">EVENT_PRESET</text></g><!--link STATE_RESET to STATE_RESET--><g class="link" data-entity-1="STATE_RESET" data-entity-2="STATE_RESET" data-source-line="13" data-uid="lnk13" id="link_STATE_RESET_STATE_RESET"><path d="M470.18,311.3869 C489.59,311.3869 505.11,315.3569 505.11,323.2969 C505.11,331.2369 495.59,335.2069 476.18,335.2069" fill="none" id="STATE_RESET-to-STATE_RESET" style="stroke:#181818;stroke-width:1;"/><polygon fill="#181818" points="470.18,335.2069,479.18,339.2069,475.18,335.2069,479.18,331.2069,470.18,335.2069" style="stroke:#181818;stroke-width:1;"/><text fill="#000000" font-family="sans-serif" font-size="13" lengthAdjust="spacing" textLength="91.1396" x="511.11" y="327.8638">EVENT_RESET</text></g><!--link STATE_RESET to STATE_RUN--><g class="link" data-entity-1="STATE_RESET" data-entity-2="STATE_RUN" data-source-line="15" data-uid="lnk16" id="link_STATE_RESET_STATE_RUN"><path d="M470.39,346.3569 C533.12,370.0469 626.207,405.197 686.047,427.797" fill="none" id="STATE_RESET-to-STATE_RUN" style="stroke:#181818;stroke-width:1;"/><polygon fill="#181818" points="691.66,429.9169,684.6537,422.995,686.9825,428.1503,681.8272,430.4791,691.66,429.9169" style="stroke:#181818;stroke-width:1;"/><text fill="#000000" font-family="sans-serif" font-size="13" lengthAdjust="spacing" textLength="114.7275" x="597.97" y="391.3638">EVENT_INCREASE</text></g><!--link STATE_RUN to STATE_RUN--><g class="link" data-entity-1="STATE_RUN" data-entity-2="STATE_RUN" data-source-line="18" data-uid="lnk18" id="link_STATE_RUN_STATE_RUN"><path d="M794.14,438.4169 C813.21,438.0269 828.9,441.9869 828.9,450.2969 C828.9,458.6069 819.2087,462.6896 800.1387,462.2996" fill="none" id="STATE_RUN-to-STATE_RUN" style="stroke:#181818;stroke-width:1;"/><polygon fill="#181818" points="794.14,462.1769,803.0563,466.3601,799.139,462.2791,803.2199,458.3617,794.14,462.1769" style="stroke:#181818;stroke-width:1;"/><text fill="#000000" font-family="sans-serif" font-size="13" lengthAdjust="spacing" textLength="390.6284" x="853.5367" y="447.3638">(EVENT_INCREASE &amp; (currentVolume &gt;= lastVolumeInRun))</text><text fill="#000000" font-family="sans-serif" font-size="13" lengthAdjust="spacing" textLength="427.9019" x="839.0323" y="462.4966">|  ( !(EVENT_RESET | EVENT_PRESET) &amp; time &lt; MAX_PAUSE_TIME)</text></g><!--link STATE_RUN to STATE_STOP--><g class="link" data-entity-1="STATE_RUN" data-entity-2="STATE_STOP" data-source-line="19" data-uid="lnk20" id="link_STATE_RUN_STATE_STOP"><path d="M691.56,467.8469 C682.73,470.4769 673.62,473.0669 664.97,475.2969 C512.03,514.8269 334.6111,549.012 245.2411,565.442" fill="none" id="STATE_RUN-to-STATE_STOP" style="stroke:#181818;stroke-width:1;"/><polygon fill="#181818" points="239.34,566.5269,248.9149,568.8336,244.2576,565.6228,247.4684,560.9655,239.34,566.5269" style="stroke:#181818;stroke-width:1;"/><text fill="#000000" font-family="sans-serif" font-size="13" lengthAdjust="spacing" textLength="36.9116" x="534.97" y="518.3638">Other</text></g><!--link STATE_STOP to STATE_RUN--><g class="link" data-entity-1="STATE_STOP" data-entity-2="STATE_RUN" data-source-line="21" data-uid="lnk21" id="link_STATE_STOP_STATE_RUN"><path d="M239.6,573.5769 C316.72,568.6669 461.35,555.5569 579.97,522.2969 C620.69,510.8769 659.1247,493.9923 691.0647,478.3023" fill="none" id="STATE_STOP-to-STATE_RUN" style="stroke:#181818;stroke-width:1;"/><polygon fill="#181818" points="696.45,475.6569,686.6084,476.0348,691.9622,477.8614,690.1357,483.2153,696.45,475.6569" style="stroke:#181818;stroke-width:1;"/><text fill="#000000" font-family="sans-serif" font-size="13" lengthAdjust="spacing" textLength="380.4849" x="626.97" y="518.3638">EVENT_INCREASE &amp; (currentVolume &gt;= lastVolumeInRun)</text></g><!--link STATE_STOP to STATE_RESET--><g class="link" data-entity-1="STATE_STOP" data-entity-2="STATE_RESET" data-source-line="22" data-uid="lnk22" id="link_STATE_STOP_STATE_RESET"><path d="M174.74,552.0269 C163.05,520.1269 148.58,463.6569 173.97,425.2969 C213.62,365.4069 290.7601,341.9626 347.4801,332.0226" fill="none" id="STATE_STOP-to-STATE_RESET" style="stroke:#181818;stroke-width:1;"/><polygon fill="#181818" points="353.39,330.9869,343.8346,328.6005,348.4651,331.85,345.2156,336.4804,353.39,330.9869" style="stroke:#181818;stroke-width:1;"/><text fill="#000000" font-family="sans-serif" font-size="13" lengthAdjust="spacing" textLength="499.624" x="174.97" y="454.8638">EVENT_RESET | (EVENT_INCREASE &amp; !(currentVolume &gt;= lastVolumeInRun))</text></g><!--link STATE_STOP to STATE_PRESET--><g class="link" data-entity-1="STATE_STOP" data-entity-2="STATE_PRESET" data-source-line="23" data-uid="lnk23" id="link_STATE_STOP_STATE_PRESET"><path d="M162.78,551.8469 C113.8,494.8269 6,350.3669 73.97,251.2969 C91.44,225.8369 116.9079,213.8373 145.4879,206.7173" fill="none" id="STATE_STOP-to-STATE_PRESET" style="stroke:#181818;stroke-width:1;"/><polygon fill="#181818" points="151.31,205.2669,141.61,203.5611,146.4583,206.4756,143.5439,211.3239,151.31,205.2669" style="stroke:#181818;stroke-width:1;"/><text fill="#000000" font-family="sans-serif" font-size="13" lengthAdjust="spacing" textLength="98.979" x="66.97" y="391.3638">EVENT_PRESET</text></g><!--link STATE_STOP to STATE_STOP--><g class="link" data-entity-1="STATE_STOP" data-entity-2="STATE_STOP" data-source-line="24" data-uid="lnk24" id="link_STATE_STOP_STATE_STOP"><path d="M239.39,565.3969 C258.57,565.2069 274.13,569.1769 274.13,577.2969 C274.13,585.4169 264.5697,589.4463 245.3897,589.2563" fill="none" id="STATE_STOP-to-STATE_STOP" style="stroke:#181818;stroke-width:1;"/><polygon fill="#181818" points="239.39,589.1969,248.3499,593.2858,244.3898,589.2464,248.4292,585.2862,239.39,589.1969" style="stroke:#181818;stroke-width:1;"/><text fill="#000000" font-family="sans-serif" font-size="13" lengthAdjust="spacing" textLength="36.9116" x="280.13" y="581.8638">Other</text></g><!--SRC=[bP7HQeD044NVzojkNeeM_87G1AHCGH9NSTUqq1IHHfA0tO1Tt_BnNQgah6uI-xOpU-VEcHbzr7M5zMcFGwbsvXdW9HQClJz-85WYvokUlF8vX2uR3J3MPn2ONo53IKMQaI29EMX3NFQXGsVBkkZSHn5_pYWKz5TswMqg4dse6iQiTdVQszh_COnghv0CG1pUjd0IyeWuvnVXWF0-OCv7JfvjXGTudstJL4flJdNxLM6vG5r-zr6aibRvFhRAh0aUPfvhSzq0ll7IH-FmX3XyAz8m5rJ8A2RVYIDaaWw1VtEtPvy4VCNEUVpnGcOJDkBkSEkmdTGr_Gy0]--></g></svg>