<svg xmlns="http://www.w3.org/2000/svg" xmlns:xlink="http://www.w3.org/1999/xlink" contentStyleType="text/css" data-diagram-type="STATE" height="608px" preserveAspectRatio="none" style="width:525px;height:608px;background:#FFFFFF;" version="1.1" viewBox="0 0 525 608" width="525px" zoomAndPan="magnify"><title>Callback when State has updated</title><defs/><g><g class="title" data-source-line="1"><text fill="#000000" font-family="sans-serif" font-size="14" font-weight="bold" lengthAdjust="spacing" textLength="264.0791" x="123.8782" y="22.9951">Callback when State has updated</text></g><ellipse cx="213.36" cy="69.2969" fill="#222222" rx="10" ry="10" style="stroke:#222222;stroke-width:1;"/><g id="STATE_UNKNOWN"><rect fill="#F1F1F1" height="50" rx="12.5" ry="12.5" style="stroke:#181818;stroke-width:0.5;" width="147.1211" x="290.8" y="44.2969"/><line style="stroke:#181818;stroke-width:0.5;" x1="290.8" x2="437.9211" y1="70.5938" y2="70.5938"/><text fill="#000000" font-family="sans-serif" font-size="14" lengthAdjust="spacing" textLength="127.1211" x="300.8" y="62.292">STATE_UNKNOWN</text></g><g id="STATE_PRESET"><rect fill="#F1F1F1" height="50" rx="12.5" ry="12.5" style="stroke:#181818;stroke-width:0.5;" width="124.7129" x="7" y="171.2969"/><line style="stroke:#181818;stroke-width:0.5;" x1="7" x2="131.7129" y1="197.5938" y2="197.5938"/><text fill="#000000" font-family="sans-serif" font-size="14" lengthAdjust="spacing" textLength="104.7129" x="17" y="189.292">STATE_PRESET</text></g><g id="STATE_RESET"><rect fill="#F1F1F1" height="50" rx="12.5" ry="12.5" style="stroke:#181818;stroke-width:0.5;" width="116.2705" x="196.22" y="298.2969"/><line style="stroke:#181818;stroke-width:0.5;" x1="196.22" x2="312.4905" y1="324.5938" y2="324.5938"/><text fill="#000000" font-family="sans-serif" font-size="14" lengthAdjust="spacing" textLength="96.2705" x="206.22" y="316.292">STATE_RESET</text></g><g id="STATE_RUN"><rect fill="#F1F1F1" height="50" rx="12.5" ry="12.5" style="stroke:#181818;stroke-width:0.5;" width="101.8604" x="227.43" y="425.2969"/><line style="stroke:#181818;stroke-width:0.5;" x1="227.43" x2="329.2904" y1="451.5938" y2="451.5938"/><text fill="#000000" font-family="sans-serif" font-size="14" lengthAdjust="spacing" textLength="81.8604" x="237.43" y="443.292">STATE_RUN</text></g><g id="STOP"><rect fill="#F1F1F1" height="50" rx="12.5" ry="12.5" style="stroke:#181818;stroke-width:0.5;" width="56.9004" x="157.91" y="552.2969"/><line style="stroke:#181818;stroke-width:0.5;" x1="157.91" x2="214.8104" y1="578.5938" y2="578.5938"/><text fill="#000000" font-family="sans-serif" font-size="14" lengthAdjust="spacing" textLength="36.9004" x="167.91" y="570.292">STOP</text></g><!--link *start* to STATE_UNKNOWN--><g class="link" data-entity-1="*start*" data-entity-2="STATE_UNKNOWN" data-source-line="4" data-uid="lnk4" id="link_*start*_STATE_UNKNOWN"><path d="M223.74,69.2969 C237.86,69.2969 258.4,69.2969 284.65,69.2969" fill="none" id="*start*-to-STATE_UNKNOWN" style="stroke:#181818;stroke-width:1;"/><polygon fill="#181818" points="290.65,69.2969,281.65,65.2969,285.65,69.2969,281.65,73.2969,290.65,69.2969" style="stroke:#181818;stroke-width:1;"/><text fill="#000000" font-family="sans-serif" font-size="13" lengthAdjust="spacing" textLength="31.7573" x="241.58" y="62.3638">Start</text></g><!--link STATE_UNKNOWN to STATE_PRESET--><g class="link" data-entity-1="STATE_UNKNOWN" data-entity-2="STATE_PRESET" data-source-line="6" data-uid="lnk6" id="link_STATE_UNKNOWN_STATE_PRESET"><path d="M302.48,94.7469 C279.73,103.8669 253.81,114.3969 230.36,124.2969 C194.61,139.3769 160.1889,154.5212 129.0489,168.4212" fill="none" id="STATE_UNKNOWN-to-STATE_PRESET" style="stroke:#181818;stroke-width:1;"/><polygon fill="#181818" points="123.57,170.8669,133.4188,170.851,128.1358,168.8288,130.158,163.5458,123.57,170.8669" style="stroke:#181818;stroke-width:1;"/><text fill="#000000" font-family="sans-serif" font-size="13" lengthAdjust="spacing" textLength="33.9155" x="231.36" y="137.3638">None</text></g><!--link STATE_PRESET to STATE_UNKNOWN--><g class="link" data-entity-1="STATE_PRESET" data-entity-2="STATE_UNKNOWN" data-source-line="12" data-uid="lnk12" id="link_STATE_PRESET_STATE_UNKNOWN"><path d="M131.9,184.7469 C172.46,176.3969 225.7,162.5369 269.36,141.2969 C294.35,129.1369 314.8203,113.9332 332.9203,98.6132" fill="none" id="STATE_PRESET-to-STATE_UNKNOWN" style="stroke:#181818;stroke-width:1;"/><polygon fill="#181818" points="337.5,94.7369,328.0462,97.4982,333.6835,97.9672,333.2146,103.6045,337.5,94.7369" style="stroke:#181818;stroke-width:1;"/><text fill="#000000" font-family="sans-serif" font-size="13" lengthAdjust="spacing" textLength="33.9155" x="298.36" y="137.3638">None</text></g><!--link STATE_UNKNOWN to STATE_RESET--><g class="link" data-entity-1="STATE_UNKNOWN" data-entity-2="STATE_RESET" data-source-line="7" data-uid="lnk8" id="link_STATE_UNKNOWN_STATE_RESET"><path d="M371.22,94.5769 C378.6,125.5069 386.98,179.9269 368.36,221.2969 C353.65,253.9669 327.5487,276.9835 301.5487,294.5835" fill="none" id="STATE_UNKNOWN-to-STATE_RESET" style="stroke:#181818;stroke-width:1;"/><polygon fill="#181818" points="296.58,297.9469,306.2753,296.2142,300.7205,295.144,301.7907,289.5893,296.58,297.9469" style="stroke:#181818;stroke-width:1;"/><text fill="#000000" font-family="sans-serif" font-size="13" lengthAdjust="spacing" textLength="33.9155" x="379.36" y="200.8638">None</text></g><!--link STATE_RESET to STATE_UNKNOWN--><g class="link" data-entity-1="STATE_RESET" data-entity-2="STATE_UNKNOWN" data-source-line="17" data-uid="lnk17" id="link_STATE_RESET_STATE_UNKNOWN"><path d="M312.77,305.9469 C352.56,291.1869 401.49,264.9269 421.36,221.2969 C441.21,177.6869 412.7949,129.702 389.2849,99.492" fill="none" id="STATE_RESET-to-STATE_UNKNOWN" style="stroke:#181818;stroke-width:1;"/><polygon fill="#181818" points="385.6,94.7569,387.9707,104.3162,388.6708,98.7028,394.2842,99.4029,385.6,94.7569" style="stroke:#181818;stroke-width:1;"/><text fill="#000000" font-family="sans-serif" font-size="13" lengthAdjust="spacing" textLength="33.9155" x="428.36" y="200.8638">None</text></g><!--link STATE_UNKNOWN to STATE_UNKNOWN--><g class="link" data-entity-1="STATE_UNKNOWN" data-entity-2="STATE_UNKNOWN" data-source-line="8" data-uid="lnk9" id="link_STATE_UNKNOWN_STATE_UNKNOWN"><path d="M438.18,57.4869 C457.93,58.1369 472.92,62.0769 472.92,69.2969 C472.92,76.5169 463.9268,80.2595 444.1768,80.9095" fill="none" id="STATE_UNKNOWN-to-STATE_UNKNOWN" style="stroke:#181818;stroke-width:1;"/><polygon fill="#181818" points="438.18,81.1069,447.3067,84.8087,443.1773,80.9424,447.0436,76.813,438.18,81.1069" style="stroke:#181818;stroke-width:1;"/><text fill="#000000" font-family="sans-serif" font-size="13" lengthAdjust="spacing" textLength="33.9155" x="478.92" y="73.8638">None</text></g><!--link STATE_PRESET to STATE_PRESET--><g class="link" data-entity-1="STATE_PRESET" data-entity-2="STATE_PRESET" data-source-line="10" data-uid="lnk10" id="link_STATE_PRESET_STATE_PRESET"><path d="M132.09,184.4069 C151.49,184.6469 166.71,188.6069 166.71,196.2969 C166.71,203.9869 157.4895,207.8727 138.0895,208.1127" fill="none" id="STATE_PRESET-to-STATE_PRESET" style="stroke:#181818;stroke-width:1;"/><polygon fill="#181818" points="132.09,208.1869,141.1388,212.0752,137.0896,208.125,141.0398,204.0758,132.09,208.1869" style="stroke:#181818;stroke-width:1;"/><text fill="#000000" font-family="sans-serif" font-size="13" lengthAdjust="spacing" textLength="189.4648" x="172.71" y="200.8638">Check overtime to cut Preset</text></g><!--link STATE_PRESET to STATE_RESET--><g class="link" data-entity-1="STATE_PRESET" data-entity-2="STATE_RESET" data-source-line="11" data-uid="lnk11" id="link_STATE_PRESET_STATE_RESET"><path d="M89.29,221.5069 C102.4,236.3569 120.56,254.9969 139.36,268.2969 C156.64,280.5269 171.6742,288.7019 190.5342,297.2419" fill="none" id="STATE_PRESET-to-STATE_RESET" style="stroke:#181818;stroke-width:1;"/><polygon fill="#181818" points="196,299.7169,189.4513,292.3606,191.4452,297.6544,186.1514,299.6483,196,299.7169" style="stroke:#181818;stroke-width:1;"/><text fill="#000000" font-family="sans-serif" font-size="13" lengthAdjust="spacing" textLength="67.5962" x="140.36" y="264.3638">Cut Preset</text></g><!--link STATE_RESET to STATE_PRESET--><g class="link" data-entity-1="STATE_RESET" data-entity-2="STATE_PRESET" data-source-line="15" data-uid="lnk14" id="link_STATE_RESET_STATE_PRESET"><path d="M245,298.0469 C238.03,282.7969 227.16,263.7369 212.36,251.2969 C189.4,232.0069 164.587,220.9839 137.617,212.7239" fill="none" id="STATE_RESET-to-STATE_PRESET" style="stroke:#181818;stroke-width:1;"/><polygon fill="#181818" points="131.88,210.9669,139.3141,217.4271,136.6608,212.4311,141.6568,209.7778,131.88,210.9669" style="stroke:#181818;stroke-width:1;"/><text fill="#000000" font-family="sans-serif" font-size="13" lengthAdjust="spacing" textLength="33.9155" x="228.36" y="264.3638">None</text></g><!--link STATE_RESET to STATE_RESET--><g class="link" data-entity-1="STATE_RESET" data-entity-2="STATE_RESET" data-source-line="14" data-uid="lnk13" id="link_STATE_RESET_STATE_RESET"><path d="M312.57,311.3869 C331.97,311.3869 347.49,315.3569 347.49,323.2969 C347.49,331.2369 337.97,335.2069 318.57,335.2069" fill="none" id="STATE_RESET-to-STATE_RESET" style="stroke:#181818;stroke-width:1;"/><polygon fill="#181818" points="312.57,335.2069,321.57,339.2069,317.57,335.2069,321.57,331.2069,312.57,335.2069" style="stroke:#181818;stroke-width:1;"/><text fill="#000000" font-family="sans-serif" font-size="13" lengthAdjust="spacing" textLength="33.9155" x="353.49" y="327.8638">None</text></g><!--link STATE_RESET to STATE_RUN--><g class="link" data-entity-1="STATE_RESET" data-entity-2="STATE_RUN" data-source-line="16" data-uid="lnk16" id="link_STATE_RESET_STATE_RUN"><path d="M259.04,348.6969 C263.27,370.7169 268.3297,397.0643 272.5497,419.0643" fill="none" id="STATE_RESET-to-STATE_RUN" style="stroke:#181818;stroke-width:1;"/><polygon fill="#181818" points="273.68,424.9569,275.9129,415.3645,272.7381,420.0464,268.0562,416.8716,273.68,424.9569" style="stroke:#181818;stroke-width:1;"/><text fill="#000000" font-family="sans-serif" font-size="13" lengthAdjust="spacing" textLength="117.4761" x="268.36" y="391.3638">generate new Log</text></g><!--link STATE_RUN to STATE_RUN--><g class="link" data-entity-1="STATE_RUN" data-entity-2="STATE_RUN" data-source-line="19" data-uid="lnk18" id="link_STATE_RUN_STATE_RUN"><path d="M329.52,438.4169 C348.59,438.0269 364.29,441.9869 364.29,450.2969 C364.29,458.6069 354.5887,462.6896 335.5187,462.2996" fill="none" id="STATE_RUN-to-STATE_RUN" style="stroke:#181818;stroke-width:1;"/><polygon fill="#181818" points="329.52,462.1769,338.4363,466.3601,334.519,462.2791,338.5999,458.3617,329.52,462.1769" style="stroke:#181818;stroke-width:1;"/><text fill="#000000" font-family="sans-serif" font-size="13" lengthAdjust="spacing" textLength="103.1748" x="370.29" y="454.8638">Update Log info</text></g><!--link STATE_RUN to STOP--><g class="link" data-entity-1="STATE_RUN" data-entity-2="STOP" data-source-line="20" data-uid="lnk20" id="link_STATE_RUN_STOP"><path d="M241.52,475.7169 C230.99,484.0969 220.25,494.1969 212.36,505.2969 C202.39,519.3169 197.4351,531.7983 193.3851,546.2883" fill="none" id="STATE_RUN-to-STOP" style="stroke:#181818;stroke-width:1;"/><polygon fill="#181818" points="191.77,552.0669,198.045,544.4758,193.1159,547.2514,190.3403,542.3223,191.77,552.0669" style="stroke:#181818;stroke-width:1;"/><text fill="#000000" font-family="sans-serif" font-size="13" lengthAdjust="spacing" textLength="49.9941" x="213.36" y="518.3638">Cut Log</text></g><!--link STOP to STATE_RUN--><g class="link" data-entity-1="STOP" data-entity-2="STATE_RUN" data-source-line="22" data-uid="lnk21" id="link_STOP_STATE_RUN"><path d="M214.91,564.5969 C232.9,555.6969 254.99,541.6669 267.36,522.2969 C276.15,508.5269 278.6059,496.2531 279.1259,481.6931" fill="none" id="STOP-to-STATE_RUN" style="stroke:#181818;stroke-width:1;"/><polygon fill="#181818" points="279.34,475.6969,275.0213,484.5484,279.1615,480.6937,283.0162,484.8339,279.34,475.6969" style="stroke:#181818;stroke-width:1;"/><text fill="#000000" font-family="sans-serif" font-size="13" lengthAdjust="spacing" textLength="33.9155" x="275.36" y="518.3638">None</text></g><!--link STOP to STATE_RESET--><g class="link" data-entity-1="STOP" data-entity-2="STATE_RESET" data-source-line="23" data-uid="lnk22" id="link_STOP_STATE_RESET"><path d="M178.82,551.9969 C170.65,521.5069 160.63,468.0369 175.36,425.2969 C185.66,395.4069 204.6246,371.8766 223.2246,353.0366" fill="none" id="STOP-to-STATE_RESET" style="stroke:#181818;stroke-width:1;"/><polygon fill="#181818" points="227.44,348.7669,218.2705,352.3613,223.9272,352.325,223.9635,357.9817,227.44,348.7669" style="stroke:#181818;stroke-width:1;"/><text fill="#000000" font-family="sans-serif" font-size="13" lengthAdjust="spacing" textLength="33.9155" x="176.36" y="454.8638">None</text></g><!--link STOP to STATE_PRESET--><g class="link" data-entity-1="STOP" data-entity-2="STATE_PRESET" data-source-line="24" data-uid="lnk23" id="link_STOP_STATE_PRESET"><path d="M174.63,551.8569 C170.47,542.7069 165.93,532.1369 162.36,522.2969 C122.38,412.2469 89.6321,282.1807 76.5021,227.5507" fill="none" id="STOP-to-STATE_PRESET" style="stroke:#181818;stroke-width:1;"/><polygon fill="#181818" points="75.1,221.7169,73.314,231.4024,76.2684,226.5784,81.0924,229.5329,75.1,221.7169" style="stroke:#181818;stroke-width:1;"/><text fill="#000000" font-family="sans-serif" font-size="13" lengthAdjust="spacing" textLength="33.9155" x="122.36" y="391.3638">None</text></g><!--link STOP to STOP--><g class="link" data-entity-1="STOP" data-entity-2="STOP" data-source-line="25" data-uid="lnk24" id="link_STOP_STOP"><path d="M215.07,566.2269 C232.87,563.5669 249.81,567.2469 249.81,577.2969 C249.81,587.3469 238.8041,591.9137 221.0041,589.2537" fill="none" id="STOP-to-STOP" style="stroke:#181818;stroke-width:1;"/><polygon fill="#181818" points="215.07,588.3669,223.38,593.6531,220.0151,589.1059,224.5623,585.741,215.07,588.3669" style="stroke:#181818;stroke-width:1;"/><text fill="#000000" font-family="sans-serif" font-size="13" lengthAdjust="spacing" textLength="33.9155" x="255.81" y="581.8638">None</text></g><!--SRC=[ZP713e8m44Jl_Oevc_W374mCuQGfZK0y66DGLY5YQt3LtvSQDMa1zTRklixCThdYcX3cTRtDTqVSIz98E6T2cLzmFHVjiH12h4PhZ2T8qcaQRJ8va_5I1fPi6132gMFy8TKYIg8K0QJHD4XzWppFDoKS_QvVM58xZhbHmzM9m0QxAqCrT27stdPYX3_9_Z1UbfwfV1tr1xF8hC-1D3LsBPhkc9l303mGB9CTmUovMYk5IkzDXupLwoUicNZUVObNQBVZ3kJqL4_pOsLh3m00]--></g></svg>